<?xml version="1.0" encoding="utf-8"?>
<!-- Generator: Adobe Illustrator 24.1.2, SVG Export Plug-In . SVG Version: 6.00 Build 0)  -->
<svg version="1.1" id="Layer_1" xmlns="http://www.w3.org/2000/svg" xmlns:xlink="http://www.w3.org/1999/xlink" x="0px" y="0px"
	 viewBox="0 0 250 100" style="enable-background:new 0 0 250 100;" xml:space="preserve">
<style type="text/css">
	.st0{fill:#FFFFFF;}
</style>
<g>
	<g>
		<path class="st0" d="M26.1,48.6c-1.2,0.3-2.5,0.4-3.8,0.4c-9.6,0-15.7-6.3-15.7-15.2v-0.3c0-9.1,6.8-15.2,15.8-15.2
			c9.1,0,15.8,5.7,15.8,15v0.3c0,5.2-2,9.5-5.6,12.2l3,3L31,53.5L26.1,48.6z M19.9,42l4.8-4.4l2.7,2.7c1.3-1.5,2-3.7,2-6.7v-0.3
			c0-5.3-2.7-8.4-6.9-8.4c-4.2,0-6.8,3-6.8,8.5v0.3C15.6,38.2,17.2,41,19.9,42z"/>
		<path class="st0" d="M41.2,36.4V18.6h8.6V36c0,4.2,1,6.3,4.7,6.3c3.5,0,4.7-1.9,4.7-6.4V18.6h8.6v17.6c0,8.7-5.1,12.7-13.3,12.7
			C46,49,41.2,44.7,41.2,36.4z"/>
		<path class="st0" d="M77.8,18.6h11.1l9.5,29.8h-9.1l-1.6-5.6h-9.9l-1.6,5.6h-8L77.8,18.6z M79.5,37H86l-3.3-11.5L79.5,37z"/>
		<path class="st0" d="M97.7,33.7v-0.3c0-9.1,6.7-15.2,15.7-15.2c7.1,0,13.3,3.2,13.9,11h-8.5c-0.4-2.8-2.2-4.3-5.4-4.3
			c-4.2,0-6.8,3.3-6.8,8.6v0.3c0,4.8,1.8,8.6,7,8.6c4.2,0,5.8-2.1,5.9-4.5h-5.6v-6h14v3.7c0,7.6-5,13.3-14.6,13.3
			C103.2,49,97.7,42.7,97.7,33.7z"/>
		<path class="st0" d="M131.1,18.6h20.6v6.6h-12.1v5.1h9.6v6.1h-9.6v5.4h12.8v6.6h-21.3V18.6z"/>
		<path class="st0" d="M155.6,18.6h9.6l9.6,16.8V18.6h7.5v29.8H174l-10.9-18.7v18.7h-7.5V18.6z"/>
		<path class="st0" d="M187,18.6h10.9c10.6,0,16,5.3,16,14.6v0.3c0,9.3-5.5,14.9-16,14.9H187V18.6z M197.5,41.9
			c5.1,0,7.3-2.7,7.3-8.2v-0.3c0-5.7-2.3-8.1-7.4-8.1h-1.9v16.7H197.5z"/>
		<path class="st0" d="M222.7,18.6h11.1l9.5,29.8h-9.1l-1.6-5.6h-9.9l-1.6,5.6h-8L222.7,18.6z M224.4,37h6.6l-3.3-11.5L224.4,37z"/>
	</g>
	<path class="st0" d="M233.3,55.9c0,0,0.5,7.5-6.7,8.7c0,0-2.4,0.6-9.9,0.5c-7.5-0.1-72.4,0-72.4,0s-12.3-1.3-19.4,5.5
		c-7.1-6.8-19.4-5.5-19.4-5.5s-62-0.1-69.5,0c-7.5,0.1-9.9-0.5-9.9-0.5c-7.2-1.2-6.7-8.7-6.7-8.7H9.6c0.2,6.7,3.6,11.7,7.8,14.8
		c4.5,3.4,12.8,3.5,12.8,3.5s70.4-0.8,79.7,0c7.1,0.6,12.4,5.1,14.5,7.2c0.2,0.2,0.4,0.4,0.5,0.5c0.1-0.1,0.3-0.3,0.5-0.5
		c2.1-2.1,7.4-6.6,14.5-7.2c9.3-0.8,82.7,0,82.7,0s8.2-0.1,12.8-3.5c4.2-3.1,7.6-8.1,7.8-14.8H233.3z"/>
	<g>
		<path class="st0" d="M239.9,19.6h1.1c0.4,0,0.7,0.2,0.7,0.6c0,0.3-0.1,0.5-0.4,0.6v0c0.3,0,0.3,0.2,0.3,0.5c0,0.2,0,0.5,0.1,0.6
			h-0.3c-0.1-0.1,0-0.3-0.1-0.6c0-0.2-0.1-0.4-0.4-0.4h-0.7v1h-0.3V19.6z M240.8,20.6c0.3,0,0.5-0.1,0.5-0.4c0-0.2-0.1-0.4-0.4-0.4
			h-0.7v0.8H240.8z"/>
		<path class="st0" d="M238.1,20.7c0-1.4,1.2-2.6,2.6-2.6c1.4,0,2.6,1.2,2.6,2.6c0,1.5-1.2,2.6-2.6,2.6
			C239.3,23.3,238.1,22.1,238.1,20.7 M238.4,20.7c0,1.3,1,2.3,2.3,2.4c1.3,0,2.3-1.1,2.3-2.4c0-1.3-1-2.3-2.3-2.4
			C239.4,18.3,238.4,19.4,238.4,20.7"/>
	</g>
</g>
</svg>
